<?xml version="1.0" standalone="no"?><svg xmlns:xlink="http://www.w3.org/1999/xlink" xmlns="http://www.w3.org/2000/svg" viewBox="0 0 1000 692.3124968366734" preserveAspectRatio="xMaxYMax slice"><g transform="scale(1.0768771853876382)"><rect x="0" y="0" width="928.6174444444445" height="642.889" fill="#ffffff"/><rect x="571.4568888888889" y="0" width="71.43211111111111" height="71.43211111111111" fill="#ffffff"/><path d="M 607.17 0 A 35.72 35.72 0 0 1  642.89 35.72 L 607.17 0 A 35.72 35.72 0 0 0 642.89 35.72" fill="#ff6388"/><rect x="642.889" y="0" width="71.43211111111111" height="71.43211111111111" fill="#ffffff"/><path d="M 642.89 35.72 A 35.72 35.72 0 0 1  678.61 71.44 L 642.89 35.72 A 35.72 35.72 0 0 0 678.61 71.44" fill="#ff3e6c"/><path d="M 714.32 0 A 71.43 71.43 0 0 1  785.75 71.43 L 714.32 0 A 71.43 71.43 0 0 0 785.75 71.43" fill="#ffd9e2"/><rect x="785.7532222222222" y="0" width="71.43211111111111" height="71.43211111111111" fill="#ffffff"/><path d="M 785.75 0 A 35.72 35.72 0 0 1  821.47 35.72 L 785.75 0 A 35.72 35.72 0 0 0 821.47 35.72" fill="#1a41e1"/><path d="M 821.47 35.72 A 35.72 35.72 0 0 1  857.19 0 L 821.47 35.72 A 35.72 35.72 0 0 0 857.19 0" fill="#90a3f1"/><rect x="0" y="71.43211111111111" width="71.43211111111111" height="71.43211111111111" fill="#ffffff"/><path d="M 35.72 142.87 A 35.72 35.72 0 0 1  71.44 107.15 L 35.72 142.87 A 35.72 35.72 0 0 0 71.44 107.15" fill="#1b42e1"/><path d="M 142.86 71.43 A 71.43 71.43 0 0 1  214.29000000000002 142.86 L 142.86 71.43 A 71.43 71.43 0 0 0 214.29000000000002 142.86" fill="#ffa7bc"/><rect x="285.72844444444445" y="71.43211111111111" width="71.43211111111111" height="71.43211111111111" fill="#ffffff"/><path d="M 285.73 71.43 A 35.72 35.72 0 0 1  321.45000000000005 107.15 L 285.73 71.43 A 35.72 35.72 0 0 0 321.45000000000005 107.15" fill="#b0bdf5"/><rect x="428.5926666666667" y="71.43211111111111" width="71.43211111111111" height="71.43211111111111" fill="#ffffff"/><path d="M 428.59 142.87 A 35.72 35.72 0 0 1  464.30999999999995 107.15 L 428.59 142.87 A 35.72 35.72 0 0 0 464.30999999999995 107.15" fill="#ffb8c9"/><rect x="500.0247777777778" y="71.43211111111111" width="71.43211111111111" height="71.43211111111111" fill="#ffffff"/><path d="M 785.75 71.43 A 71.43 71.43 0 0 1  857.1800000000001 142.86 L 785.75 71.43 A 71.43 71.43 0 0 0 857.1800000000001 142.86" fill="#899df0"/><rect x="0" y="142.86422222222222" width="71.43211111111111" height="71.43211111111111" fill="#ffffff"/><path d="M 35.72 142.86 A 35.72 35.72 0 0 1  71.44 178.58 L 35.72 142.86 A 35.72 35.72 0 0 0 71.44 178.58" fill="#9babf2"/><path d="M 35.72 178.58 A 35.72 35.72 0 0 1  71.44 214.3 L 35.72 178.58 A 35.72 35.72 0 0 0 71.44 214.3" fill="#ff4672"/><rect x="71.43211111111111" y="142.86422222222222" width="71.43211111111111" height="71.43211111111111" fill="#ffffff"/><path d="M 71.43 142.86 A 35.72 35.72 0 0 1  107.15 178.58 L 71.43 142.86 A 35.72 35.72 0 0 0 107.15 178.58" fill="#ff7a9a"/><rect x="357.16055555555556" y="142.86422222222222" width="71.43211111111111" height="71.43211111111111" fill="#ffffff"/><path d="M 357.16 178.58 A 35.72 35.72 0 0 1  392.88 214.3 L 357.16 178.58 A 35.72 35.72 0 0 0 392.88 214.3" fill="#a6b5f3"/><rect x="500.0247777777778" y="142.86422222222222" width="71.43211111111111" height="71.43211111111111" fill="#ffffff"/><rect x="571.4568888888889" y="142.86422222222222" width="71.43211111111111" height="71.43211111111111" fill="#ffffff"/><path d="M 571.46 142.86 A 35.72 35.72 0 0 1  607.1800000000001 178.58 L 571.46 142.86 A 35.72 35.72 0 0 0 607.1800000000001 178.58" fill="#ff7e9d"/><path d="M 607.17 214.3 A 35.72 35.72 0 0 1  642.89 178.58 L 607.17 214.3 A 35.72 35.72 0 0 0 642.89 178.58" fill="#a4b4f3"/><rect x="71.43211111111111" y="214.29633333333334" width="71.43211111111111" height="71.43211111111111" fill="#ffffff"/><path d="M 71.43 285.73 A 35.72 35.72 0 0 1  107.15 250.01 L 71.43 285.73 A 35.72 35.72 0 0 0 107.15 250.01" fill="#bbc7f6"/><rect x="142.86422222222222" y="214.29633333333334" width="71.43211111111111" height="71.43211111111111" fill="#ffffff"/><path d="M 142.86 285.73 A 35.72 35.72 0 0 1  178.58 250.01 L 142.86 285.73 A 35.72 35.72 0 0 0 178.58 250.01" fill="#fffefe"/><rect x="357.16055555555556" y="214.29633333333334" width="71.43211111111111" height="71.43211111111111" fill="#ffffff"/><path d="M 392.88 214.3 A 35.72 35.72 0 0 1  428.6 250.02 L 392.88 214.3 A 35.72 35.72 0 0 0 428.6 250.02" fill="#e6eafc"/><path d="M 357.16 285.73 A 35.72 35.72 0 0 1  392.88 250.01 L 357.16 285.73 A 35.72 35.72 0 0 0 392.88 250.01" fill="#748ced"/><path d="M 392.88 285.73 A 35.72 35.72 0 0 1  428.6 250.01 L 392.88 285.73 A 35.72 35.72 0 0 0 428.6 250.01" fill="#ffe4ea"/><path d="M 428.59 285.73 A 71.43 71.43 0 0 1  500.02 214.3 L 428.59 285.73 A 71.43 71.43 0 0 0 500.02 214.3" fill="#ff9bb2"/><rect x="500.0247777777778" y="214.29633333333334" width="71.43211111111111" height="71.43211111111111" fill="#ffffff"/><path d="M 535.74 250.02 A 35.72 35.72 0 0 1  571.46 214.3 L 535.74 250.02 A 35.72 35.72 0 0 0 571.46 214.3" fill="#ff7697"/><path d="M 535.74 285.73 A 35.72 35.72 0 0 1  571.46 250.01 L 535.74 285.73 A 35.72 35.72 0 0 0 571.46 250.01" fill="#274ce3"/><rect x="642.889" y="214.29633333333334" width="71.43211111111111" height="71.43211111111111" fill="#ffffff"/><rect x="714.3211111111111" y="214.29633333333334" width="71.43211111111111" height="71.43211111111111" fill="#ffffff"/><path d="M 750.04 214.3 A 35.72 35.72 0 0 1  785.76 250.02 L 750.04 214.3 A 35.72 35.72 0 0 0 785.76 250.02" fill="#e6eafc"/><path d="M 714.32 285.73 A 35.72 35.72 0 0 1  750.0400000000001 250.01 L 714.32 285.73 A 35.72 35.72 0 0 0 750.0400000000001 250.01" fill="#ff4773"/><rect x="357.16055555555556" y="285.72844444444445" width="71.43211111111111" height="71.43211111111111" fill="#ffffff"/><path d="M 714.32 357.16 A 71.43 71.43 0 0 1  785.75 285.73 L 714.32 357.16 A 71.43 71.43 0 0 0 785.75 285.73" fill="#4464e7"/><path d="M 785.75 357.16 A 71.43 71.43 0 0 1  857.1800000000001 285.73 L 785.75 357.16 A 71.43 71.43 0 0 0 857.1800000000001 285.73" fill="#ffe0e7"/><rect x="0" y="357.16055555555556" width="71.43211111111111" height="71.43211111111111" fill="#ffffff"/><path d="M 0 357.16 A 35.72 35.72 0 0 1  35.72 392.88 L 0 357.16 A 35.72 35.72 0 0 0 35.72 392.88" fill="#ff7797"/><path d="M 0 428.6 A 35.72 35.72 0 0 1  35.72 392.88 L 0 428.6 A 35.72 35.72 0 0 0 35.72 392.88" fill="#ff6288"/><path d="M 35.72 428.6 A 35.72 35.72 0 0 1  71.44 392.88 L 35.72 428.6 A 35.72 35.72 0 0 0 71.44 392.88" fill="#8fa2f0"/><rect x="142.86422222222222" y="357.16055555555556" width="71.43211111111111" height="71.43211111111111" fill="#ffffff"/><path d="M 142.86 357.16 A 35.72 35.72 0 0 1  178.58 392.88 L 142.86 357.16 A 35.72 35.72 0 0 0 178.58 392.88" fill="#ff678b"/><path d="M 178.58 392.88 A 35.72 35.72 0 0 1  214.3 357.16 L 178.58 392.88 A 35.72 35.72 0 0 0 214.3 357.16" fill="#c8d2f8"/><path d="M 285.73 357.16 A 71.43 71.43 0 0 1  357.16 428.59000000000003 L 285.73 357.16 A 71.43 71.43 0 0 0 357.16 428.59000000000003" fill="#ff3867"/><path d="M 357.16 357.16 A 71.43 71.43 0 0 1  428.59000000000003 428.59000000000003 L 357.16 357.16 A 71.43 71.43 0 0 0 428.59000000000003 428.59000000000003" fill="#8da0f0"/><path d="M 571.46 357.16 A 71.43 71.43 0 0 1  642.8900000000001 428.59000000000003 L 571.46 357.16 A 71.43 71.43 0 0 0 642.8900000000001 428.59000000000003" fill="#4363e7"/><rect x="714.3211111111111" y="357.16055555555556" width="71.43211111111111" height="71.43211111111111" fill="#ffffff"/><path d="M 714.32 357.16 A 35.72 35.72 0 0 1  750.0400000000001 392.88 L 714.32 357.16 A 35.72 35.72 0 0 0 750.0400000000001 392.88" fill="#ff4470"/><path d="M 714.32 428.6 A 35.72 35.72 0 0 1  750.0400000000001 392.88 L 714.32 428.6 A 35.72 35.72 0 0 0 750.0400000000001 392.88" fill="#ff87a3"/><path d="M 857.19 357.16 A 71.43 71.43 0 0 1  928.6200000000001 428.59000000000003 L 857.19 357.16 A 71.43 71.43 0 0 0 928.6200000000001 428.59000000000003" fill="#f5f6fe"/><rect x="142.86422222222222" y="428.5926666666667" width="71.43211111111111" height="71.43211111111111" fill="#ffffff"/><path d="M 142.86 428.59 A 35.72 35.72 0 0 1  178.58 464.30999999999995 L 142.86 428.59 A 35.72 35.72 0 0 0 178.58 464.30999999999995" fill="#2f52e4"/><rect x="357.16055555555556" y="428.5926666666667" width="71.43211111111111" height="71.43211111111111" fill="#ffffff"/><path d="M 357.16 428.59 A 35.72 35.72 0 0 1  392.88 464.30999999999995 L 357.16 428.59 A 35.72 35.72 0 0 0 392.88 464.30999999999995" fill="#ffbdcd"/><path d="M 357.16 500.03 A 35.72 35.72 0 0 1  392.88 464.31 L 357.16 500.03 A 35.72 35.72 0 0 0 392.88 464.31" fill="#ff8aa6"/><rect x="642.889" y="428.5926666666667" width="71.43211111111111" height="71.43211111111111" fill="#ffffff"/><rect x="714.3211111111111" y="428.5926666666667" width="71.43211111111111" height="71.43211111111111" fill="#ffffff"/><path d="M 750.04 464.31 A 35.72 35.72 0 0 1  785.76 500.03 L 750.04 464.31 A 35.72 35.72 0 0 0 785.76 500.03" fill="#ff537c"/><path d="M 857.19 500.02 A 71.43 71.43 0 0 1  928.6200000000001 428.59 L 857.19 500.02 A 71.43 71.43 0 0 0 928.6200000000001 428.59" fill="#ff7f9d"/><rect x="0" y="500.0247777777778" width="71.43211111111111" height="71.43211111111111" fill="#ffffff"/><path d="M 0 535.74 A 35.72 35.72 0 0 1  35.72 500.02 L 0 535.74 A 35.72 35.72 0 0 0 35.72 500.02" fill="#d8defa"/><path d="M 0 535.74 A 35.72 35.72 0 0 1  35.72 571.46 L 0 535.74 A 35.72 35.72 0 0 0 35.72 571.46" fill="#98a9f2"/><path d="M 142.86 500.02 A 71.43 71.43 0 0 1  214.29000000000002 571.45 L 142.86 500.02 A 71.43 71.43 0 0 0 214.29000000000002 571.45" fill="#ff4c76"/><rect x="285.72844444444445" y="500.0247777777778" width="71.43211111111111" height="71.43211111111111" fill="#ffffff"/><path d="M 321.44 500.02 A 35.72 35.72 0 0 1  357.15999999999997 535.74 L 321.44 500.02 A 35.72 35.72 0 0 0 357.15999999999997 535.74" fill="#ff86a3"/><path d="M 571.46 571.45 A 71.43 71.43 0 0 1  642.8900000000001 500.02 L 571.46 571.45 A 71.43 71.43 0 0 0 642.8900000000001 500.02" fill="#ffe7ed"/><rect x="714.3211111111111" y="500.0247777777778" width="71.43211111111111" height="71.43211111111111" fill="#ffffff"/><path d="M 750.04 500.02 A 35.72 35.72 0 0 1  785.76 535.74 L 750.04 500.02 A 35.72 35.72 0 0 0 785.76 535.74" fill="#ffa9be"/><path d="M 750.04 571.46 A 35.72 35.72 0 0 1  785.76 535.74 L 750.04 571.46 A 35.72 35.72 0 0 0 785.76 535.74" fill="#5572e9"/><path d="M 142.86 642.8900000000001 A 71.43 71.43 0 0 1  214.29000000000002 571.46 L 142.86 642.8900000000001 A 71.43 71.43 0 0 0 214.29000000000002 571.46" fill="#fefeff"/><rect x="500.0247777777778" y="571.4568888888889" width="71.43211111111111" height="71.43211111111111" fill="#ffffff"/><path d="M 500.02 607.17 A 35.72 35.72 0 0 1  535.74 642.89 L 500.02 607.17 A 35.72 35.72 0 0 0 535.74 642.89" fill="#ffb5c6"/><rect x="785.7532222222222" y="571.4568888888889" width="71.43211111111111" height="71.43211111111111" fill="#ffffff"/><path d="M 785.75 571.46 A 35.72 35.72 0 0 1  821.47 607.1800000000001 L 785.75 571.46 A 35.72 35.72 0 0 0 821.47 607.1800000000001" fill="#738bed"/><path d="M 821.47 607.1800000000001 A 35.72 35.72 0 0 1  857.19 571.46 L 821.47 607.1800000000001 A 35.72 35.72 0 0 0 857.19 571.46" fill="#6680eb"/><rect x="857.1853333333333" y="571.4568888888889" width="71.43211111111111" height="71.43211111111111" fill="#ffffff"/><path d="M 857.19 607.1800000000001 A 35.72 35.72 0 0 1  892.9100000000001 571.46 L 857.19 607.1800000000001 A 35.72 35.72 0 0 0 892.9100000000001 571.46" fill="#e0e5fb"/><path d="M 857.19 607.17 A 35.72 35.72 0 0 1  892.9100000000001 642.89 L 857.19 607.17 A 35.72 35.72 0 0 0 892.9100000000001 642.89" fill="#ff416e"/></g></svg>